<mxfile host="app.diagrams.net" agent="Mozilla/5.0 (Macintosh; Intel Mac OS X 10_15_7) AppleWebKit/537.36 (KHTML, like Gecko) Chrome/133.0.0.0 Safari/537.36 Edg/133.0.0.0" version="26.0.15">
  <diagram id="o5nvUfEdcB_Z8_vFqPmU" name="第 1 页">
    <mxGraphModel dx="283" dy="-3965" grid="1" gridSize="10" guides="1" tooltips="1" connect="1" arrows="1" fold="1" page="1" pageScale="1" pageWidth="1169" pageHeight="827" math="0" shadow="0">
      <root>
        <mxCell id="0" />
        <mxCell id="1" parent="0" />
        <mxCell id="rF3rQbnVZQ3ykrwLCHyt-1" value="&lt;font style=&quot;font-size: 14px;&quot; face=&quot;Times New Roman&quot;&gt;App1&lt;/font&gt;" style="rounded=0;whiteSpace=wrap;html=1;strokeWidth=2;container=0;shadow=1;" parent="1" vertex="1">
          <mxGeometry x="48.57" y="4250" width="191.43" height="90" as="geometry" />
        </mxCell>
        <mxCell id="rF3rQbnVZQ3ykrwLCHyt-2" value="&lt;font style=&quot;font-size: 14px;&quot; face=&quot;Times New Roman&quot;&gt;App2&lt;/font&gt;" style="rounded=0;whiteSpace=wrap;html=1;strokeWidth=2;container=0;shadow=1;" parent="1" vertex="1">
          <mxGeometry x="268.57" y="4250" width="191.43" height="90" as="geometry" />
        </mxCell>
        <mxCell id="rF3rQbnVZQ3ykrwLCHyt-3" value="" style="rounded=0;whiteSpace=wrap;html=1;strokeWidth=2;container=0;shadow=1;" parent="1" vertex="1">
          <mxGeometry x="122.5" y="4380" width="257.5" height="70" as="geometry" />
        </mxCell>
        <mxCell id="rF3rQbnVZQ3ykrwLCHyt-4" value="" style="rounded=0;whiteSpace=wrap;html=1;strokeWidth=2;container=0;shadow=1;" parent="1" vertex="1">
          <mxGeometry x="48.57" y="4500" width="411.43" height="60" as="geometry" />
        </mxCell>
        <mxCell id="rF3rQbnVZQ3ykrwLCHyt-5" value="&lt;font face=&quot;Times New Roman&quot;&gt;Shared Mem&lt;/font&gt;" style="rounded=0;whiteSpace=wrap;html=1;" parent="1" vertex="1">
          <mxGeometry x="212.5" y="4280" width="90" height="30" as="geometry" />
        </mxCell>
        <mxCell id="rF3rQbnVZQ3ykrwLCHyt-14" style="edgeStyle=orthogonalEdgeStyle;rounded=0;orthogonalLoop=1;jettySize=auto;html=1;entryX=0.055;entryY=-0.03;entryDx=0;entryDy=0;entryPerimeter=0;exitX=0.122;exitY=1.032;exitDx=0;exitDy=0;exitPerimeter=0;fillColor=#f8cecc;strokeColor=#000000;" parent="1" source="rF3rQbnVZQ3ykrwLCHyt-1" target="rF3rQbnVZQ3ykrwLCHyt-4" edge="1">
          <mxGeometry relative="1" as="geometry">
            <mxPoint x="168" y="4420" as="sourcePoint" />
            <mxPoint x="168" y="4459" as="targetPoint" />
          </mxGeometry>
        </mxCell>
        <mxCell id="rF3rQbnVZQ3ykrwLCHyt-15" value="&lt;span style=&quot;font-family: &amp;quot;Times New Roman&amp;quot;;&quot;&gt;&lt;font color=&quot;#080808&quot;&gt;signal&lt;/font&gt;&lt;/span&gt;" style="edgeLabel;html=1;align=center;verticalAlign=middle;resizable=0;points=[];" parent="rF3rQbnVZQ3ykrwLCHyt-14" vertex="1" connectable="0">
          <mxGeometry x="-0.0631" y="-1" relative="1" as="geometry">
            <mxPoint as="offset" />
          </mxGeometry>
        </mxCell>
        <mxCell id="rF3rQbnVZQ3ykrwLCHyt-16" style="edgeStyle=orthogonalEdgeStyle;rounded=0;orthogonalLoop=1;jettySize=auto;html=1;strokeColor=#000000;exitX=0.903;exitY=0;exitDx=0;exitDy=0;exitPerimeter=0;" parent="1" source="rF3rQbnVZQ3ykrwLCHyt-4" edge="1">
          <mxGeometry relative="1" as="geometry">
            <mxPoint x="420" y="4447" as="sourcePoint" />
            <mxPoint x="420" y="4340" as="targetPoint" />
          </mxGeometry>
        </mxCell>
        <mxCell id="rF3rQbnVZQ3ykrwLCHyt-17" value="&lt;span style=&quot;font-family: &amp;quot;Times New Roman&amp;quot;;&quot;&gt;receive&lt;/span&gt;" style="edgeLabel;html=1;align=center;verticalAlign=middle;resizable=0;points=[];" parent="rF3rQbnVZQ3ykrwLCHyt-16" vertex="1" connectable="0">
          <mxGeometry x="0.0787" relative="1" as="geometry">
            <mxPoint as="offset" />
          </mxGeometry>
        </mxCell>
        <mxCell id="rF3rQbnVZQ3ykrwLCHyt-18" value="&lt;font face=&quot;Times New Roman&quot;&gt;Async Runtime&lt;/font&gt;" style="rounded=0;whiteSpace=wrap;html=1;" parent="1" vertex="1">
          <mxGeometry x="48.57" y="4310" width="111.43" height="30" as="geometry" />
        </mxCell>
        <mxCell id="rF3rQbnVZQ3ykrwLCHyt-19" value="&lt;font face=&quot;Times New Roman&quot;&gt;Async Runtime&lt;/font&gt;" style="rounded=0;whiteSpace=wrap;html=1;" parent="1" vertex="1">
          <mxGeometry x="347.34000000000003" y="4310" width="111.43" height="30" as="geometry" />
        </mxCell>
        <mxCell id="rF3rQbnVZQ3ykrwLCHyt-20" value="" style="rounded=0;whiteSpace=wrap;html=1;" parent="1" vertex="1">
          <mxGeometry x="240" y="4520" width="125" height="30" as="geometry" />
        </mxCell>
        <mxCell id="rF3rQbnVZQ3ykrwLCHyt-21" value="&lt;font style=&quot;font-size: 10px;&quot; face=&quot;Times New Roman&quot;&gt;mode&lt;/font&gt;" style="rounded=0;whiteSpace=wrap;html=1;" parent="1" vertex="1">
          <mxGeometry x="240" y="4517.5" width="30" height="25" as="geometry" />
        </mxCell>
        <mxCell id="rF3rQbnVZQ3ykrwLCHyt-22" value="&lt;font style=&quot;font-size: 10px;&quot; face=&quot;Times New Roman&quot;&gt;hart id&lt;/font&gt;" style="rounded=0;whiteSpace=wrap;html=1;" parent="1" vertex="1">
          <mxGeometry x="270" y="4517.5" width="35" height="25" as="geometry" />
        </mxCell>
        <mxCell id="rF3rQbnVZQ3ykrwLCHyt-23" value="&lt;font face=&quot;Times New Roman&quot; style=&quot;font-size: 10px;&quot;&gt;reserved&lt;/font&gt;" style="rounded=0;whiteSpace=wrap;html=1;" parent="1" vertex="1">
          <mxGeometry x="305" y="4517.5" width="40" height="25" as="geometry" />
        </mxCell>
        <mxCell id="rF3rQbnVZQ3ykrwLCHyt-24" value="&lt;font face=&quot;Times New Roman&quot; style=&quot;font-size: 10px;&quot;&gt;irq&lt;/font&gt;" style="rounded=0;whiteSpace=wrap;html=1;" parent="1" vertex="1">
          <mxGeometry x="345" y="4517.5" width="20" height="25" as="geometry" />
        </mxCell>
        <mxCell id="rF3rQbnVZQ3ykrwLCHyt-25" value="" style="rounded=0;whiteSpace=wrap;html=1;" parent="1" vertex="1">
          <mxGeometry x="102.50000000000006" y="4520" width="110" height="20" as="geometry" />
        </mxCell>
        <mxCell id="rF3rQbnVZQ3ykrwLCHyt-26" value="&lt;font face=&quot;Times New Roman&quot;&gt;&lt;span style=&quot;font-size: 10px;&quot;&gt;vaild&lt;/span&gt;&lt;/font&gt;" style="rounded=0;whiteSpace=wrap;html=1;" parent="1" vertex="1">
          <mxGeometry x="102.50000000000006" y="4517.5" width="30" height="12.5" as="geometry" />
        </mxCell>
        <mxCell id="rF3rQbnVZQ3ykrwLCHyt-27" value="&lt;font face=&quot;Times New Roman&quot;&gt;&lt;span style=&quot;font-size: 10px;&quot;&gt;vec&lt;/span&gt;&lt;/font&gt;" style="rounded=0;whiteSpace=wrap;html=1;" parent="1" vertex="1">
          <mxGeometry x="132.50000000000006" y="4517.5" width="30" height="12.5" as="geometry" />
        </mxCell>
        <mxCell id="rF3rQbnVZQ3ykrwLCHyt-28" value="&lt;font face=&quot;Times New Roman&quot;&gt;&lt;span style=&quot;font-size: 10px;&quot;&gt;recv index&lt;/span&gt;&lt;/font&gt;" style="rounded=0;whiteSpace=wrap;html=1;" parent="1" vertex="1">
          <mxGeometry x="162.50000000000006" y="4517.5" width="50" height="12.5" as="geometry" />
        </mxCell>
        <mxCell id="rF3rQbnVZQ3ykrwLCHyt-29" value="&lt;font style=&quot;font-size: 10px;&quot; face=&quot;Times New Roman&quot;&gt;Receiver Status Table&lt;/font&gt;" style="rounded=0;whiteSpace=wrap;html=1;" parent="1" vertex="1">
          <mxGeometry x="240" y="4500" width="125" height="17.5" as="geometry" />
        </mxCell>
        <mxCell id="rF3rQbnVZQ3ykrwLCHyt-30" value="&lt;font style=&quot;font-size: 10px;&quot; face=&quot;Times New Roman&quot;&gt;Sender Status Table&lt;/font&gt;" style="rounded=0;whiteSpace=wrap;html=1;" parent="1" vertex="1">
          <mxGeometry x="102.50000000000006" y="4500" width="110" height="17.5" as="geometry" />
        </mxCell>
        <mxCell id="rF3rQbnVZQ3ykrwLCHyt-31" value="&lt;font face=&quot;Times New Roman&quot;&gt;Async Runtime&lt;/font&gt;" style="rounded=0;whiteSpace=wrap;html=1;" parent="1" vertex="1">
          <mxGeometry x="122.5" y="4410" width="97.5" height="30" as="geometry" />
        </mxCell>
        <mxCell id="rF3rQbnVZQ3ykrwLCHyt-32" style="edgeStyle=orthogonalEdgeStyle;rounded=0;orthogonalLoop=1;jettySize=auto;html=1;entryX=0;entryY=0.5;entryDx=0;entryDy=0;exitX=1;exitY=0.5;exitDx=0;exitDy=0;fillColor=#f8cecc;strokeColor=#030303;" parent="1" source="rF3rQbnVZQ3ykrwLCHyt-18" target="rF3rQbnVZQ3ykrwLCHyt-5" edge="1">
          <mxGeometry relative="1" as="geometry">
            <mxPoint x="82" y="4353" as="sourcePoint" />
            <mxPoint x="81" y="4509" as="targetPoint" />
            <Array as="points">
              <mxPoint x="160" y="4320" />
              <mxPoint x="200" y="4320" />
              <mxPoint x="200" y="4295" />
            </Array>
          </mxGeometry>
        </mxCell>
        <mxCell id="rF3rQbnVZQ3ykrwLCHyt-33" value="&lt;font color=&quot;#050505&quot; face=&quot;Times New Roman&quot;&gt;write&lt;/font&gt;" style="edgeLabel;html=1;align=center;verticalAlign=middle;resizable=0;points=[];" parent="rF3rQbnVZQ3ykrwLCHyt-32" vertex="1" connectable="0">
          <mxGeometry x="-0.4598" relative="1" as="geometry">
            <mxPoint as="offset" />
          </mxGeometry>
        </mxCell>
        <mxCell id="rF3rQbnVZQ3ykrwLCHyt-34" style="edgeStyle=orthogonalEdgeStyle;rounded=0;orthogonalLoop=1;jettySize=auto;html=1;entryX=0;entryY=0.5;entryDx=0;entryDy=0;exitX=1;exitY=0.5;exitDx=0;exitDy=0;fillColor=#f8cecc;strokeColor=#050505;" parent="1" source="rF3rQbnVZQ3ykrwLCHyt-5" target="rF3rQbnVZQ3ykrwLCHyt-19" edge="1">
          <mxGeometry relative="1" as="geometry">
            <mxPoint x="170" y="4335" as="sourcePoint" />
            <mxPoint x="223" y="4305" as="targetPoint" />
          </mxGeometry>
        </mxCell>
        <mxCell id="rF3rQbnVZQ3ykrwLCHyt-35" value="&lt;font color=&quot;#030303&quot; face=&quot;Times New Roman&quot;&gt;read&lt;/font&gt;" style="edgeLabel;html=1;align=center;verticalAlign=middle;resizable=0;points=[];" parent="rF3rQbnVZQ3ykrwLCHyt-34" vertex="1" connectable="0">
          <mxGeometry x="0.0457" relative="1" as="geometry">
            <mxPoint as="offset" />
          </mxGeometry>
        </mxCell>
        <mxCell id="rF3rQbnVZQ3ykrwLCHyt-37" value="" style="endArrow=classic;html=1;rounded=0;strokeColor=default;curved=0;" parent="1" edge="1">
          <mxGeometry width="50" height="50" relative="1" as="geometry">
            <mxPoint x="520" y="4275" as="sourcePoint" />
            <mxPoint x="470" y="4275" as="targetPoint" />
          </mxGeometry>
        </mxCell>
        <mxCell id="rF3rQbnVZQ3ykrwLCHyt-38" value="&lt;font face=&quot;Times New Roman&quot; style=&quot;font-size: 10px;&quot;&gt;Control Flow&lt;/font&gt;" style="text;html=1;align=center;verticalAlign=middle;whiteSpace=wrap;rounded=0;" parent="1" vertex="1">
          <mxGeometry x="522.21" y="4240" width="60" height="30" as="geometry" />
        </mxCell>
        <mxCell id="rF3rQbnVZQ3ykrwLCHyt-39" value="&lt;font face=&quot;Times New Roman&quot; style=&quot;font-size: 10px;&quot;&gt;Data Flow&lt;/font&gt;" style="text;html=1;align=center;verticalAlign=middle;whiteSpace=wrap;rounded=0;" parent="1" vertex="1">
          <mxGeometry x="522.21" y="4260" width="60" height="30" as="geometry" />
        </mxCell>
        <mxCell id="rF3rQbnVZQ3ykrwLCHyt-40" value="&lt;font style=&quot;font-size: 12px;&quot; face=&quot;Times New Roman&quot;&gt;Shared Mem&lt;/font&gt;" style="rounded=0;whiteSpace=wrap;html=1;" parent="1" vertex="1">
          <mxGeometry x="190" y="4330" width="40" height="70" as="geometry" />
        </mxCell>
        <mxCell id="rF3rQbnVZQ3ykrwLCHyt-41" value="&lt;div&gt;&lt;span style=&quot;background-color: initial;&quot;&gt;&lt;font face=&quot;Times New Roman&quot;&gt;async&lt;/font&gt;&lt;/span&gt;&lt;/div&gt;&lt;div&gt;&lt;span style=&quot;background-color: initial;&quot;&gt;&lt;font face=&quot;Times New Roman&quot;&gt;syscall handler&lt;/font&gt;&lt;/span&gt;&lt;br&gt;&lt;/div&gt;" style="rounded=1;whiteSpace=wrap;html=1;" parent="1" vertex="1">
          <mxGeometry x="230" y="4410" width="97.5" height="30" as="geometry" />
        </mxCell>
        <mxCell id="rF3rQbnVZQ3ykrwLCHyt-42" style="edgeStyle=orthogonalEdgeStyle;rounded=0;orthogonalLoop=1;jettySize=auto;html=1;strokeColor=#050505;entryX=0.25;entryY=0;entryDx=0;entryDy=0;" parent="1" target="rF3rQbnVZQ3ykrwLCHyt-40" edge="1">
          <mxGeometry relative="1" as="geometry">
            <mxPoint x="200" y="4320" as="sourcePoint" />
            <mxPoint x="430" y="4350" as="targetPoint" />
          </mxGeometry>
        </mxCell>
        <mxCell id="rF3rQbnVZQ3ykrwLCHyt-43" value="&lt;font face=&quot;Times New Roman&quot; style=&quot;font-size: 14px;&quot;&gt;Kernel&lt;/font&gt;" style="text;html=1;align=center;verticalAlign=middle;whiteSpace=wrap;rounded=0;" parent="1" vertex="1">
          <mxGeometry x="305" y="4380" width="60" height="30" as="geometry" />
        </mxCell>
        <mxCell id="rF3rQbnVZQ3ykrwLCHyt-44" value="&lt;font face=&quot;Times New Roman&quot; style=&quot;font-size: 14px;&quot;&gt;UINTC&lt;/font&gt;" style="text;html=1;align=center;verticalAlign=middle;whiteSpace=wrap;rounded=0;" parent="1" vertex="1">
          <mxGeometry x="380" y="4508.75" width="60" height="30" as="geometry" />
        </mxCell>
        <mxCell id="fnGw0pFWFKrqnsudUW0G-16" value="" style="endArrow=classic;html=1;rounded=0;endWidth=9.333333333333334;shape=flexArrow;endSize=3;fillColor=light-dark(#888686, #b4b4b4);width=5;startSize=3;exitX=0.75;exitY=1;exitDx=0;exitDy=0;entryX=0.614;entryY=-0.026;entryDx=0;entryDy=0;entryPerimeter=0;" edge="1" parent="1" source="rF3rQbnVZQ3ykrwLCHyt-3" target="rF3rQbnVZQ3ykrwLCHyt-29">
          <mxGeometry width="50" height="50" relative="1" as="geometry">
            <mxPoint x="522.21" y="4500" as="sourcePoint" />
            <mxPoint x="522.21" y="4555" as="targetPoint" />
          </mxGeometry>
        </mxCell>
        <mxCell id="fnGw0pFWFKrqnsudUW0G-18" value="&lt;span style=&quot;font-family: &amp;quot;Times New Roman&amp;quot;;&quot;&gt;alloc receiver status entry&lt;/span&gt;" style="edgeLabel;html=1;align=center;verticalAlign=middle;resizable=0;points=[];" vertex="1" connectable="0" parent="fnGw0pFWFKrqnsudUW0G-16">
          <mxGeometry x="-0.144" y="1" relative="1" as="geometry">
            <mxPoint as="offset" />
          </mxGeometry>
        </mxCell>
        <mxCell id="fnGw0pFWFKrqnsudUW0G-19" value="" style="endArrow=classic;html=1;rounded=0;endWidth=9.333333333333334;shape=flexArrow;endSize=3;fillColor=light-dark(#888686, #b4b4b4);width=5;startSize=3;entryX=0.593;entryY=-0.063;entryDx=0;entryDy=0;entryPerimeter=0;strokeColor=default;align=center;verticalAlign=middle;fontFamily=Helvetica;fontSize=11;fontColor=default;labelBackgroundColor=default;" edge="1" parent="1" target="rF3rQbnVZQ3ykrwLCHyt-30">
          <mxGeometry width="50" height="50" relative="1" as="geometry">
            <mxPoint x="168" y="4450" as="sourcePoint" />
            <mxPoint x="170" y="4490" as="targetPoint" />
          </mxGeometry>
        </mxCell>
        <mxCell id="fnGw0pFWFKrqnsudUW0G-20" value="&lt;span style=&quot;font-family: &amp;quot;Times New Roman&amp;quot;;&quot;&gt;alloc sender status entry&lt;/span&gt;" style="edgeLabel;html=1;align=center;verticalAlign=middle;resizable=0;points=[];rounded=0;strokeColor=default;fontFamily=Helvetica;fontSize=11;fontColor=default;labelBackgroundColor=default;fillColor=light-dark(#888686, #b4b4b4);" vertex="1" connectable="0" parent="fnGw0pFWFKrqnsudUW0G-19">
          <mxGeometry x="-0.144" y="1" relative="1" as="geometry">
            <mxPoint as="offset" />
          </mxGeometry>
        </mxCell>
        <mxCell id="fnGw0pFWFKrqnsudUW0G-21" value="" style="endArrow=classic;html=1;rounded=0;endWidth=9.333333333333334;shape=flexArrow;endSize=3;fillColor=light-dark(#888686, #b4b4b4);width=5;startSize=3;exitX=0.25;exitY=1;exitDx=0;exitDy=0;entryX=0.185;entryY=0.028;entryDx=0;entryDy=0;entryPerimeter=0;strokeColor=default;align=center;verticalAlign=middle;fontFamily=Helvetica;fontSize=11;fontColor=default;labelBackgroundColor=default;" edge="1" parent="1" source="rF3rQbnVZQ3ykrwLCHyt-2" target="rF3rQbnVZQ3ykrwLCHyt-43">
          <mxGeometry width="50" height="50" relative="1" as="geometry">
            <mxPoint x="510" y="4390" as="sourcePoint" />
            <mxPoint x="510.00000000000006" y="4435" as="targetPoint" />
          </mxGeometry>
        </mxCell>
        <mxCell id="fnGw0pFWFKrqnsudUW0G-22" value="&lt;span style=&quot;font-family: &amp;quot;Times New Roman&amp;quot;;&quot;&gt;register receiver&lt;/span&gt;" style="edgeLabel;html=1;align=center;verticalAlign=middle;resizable=0;points=[];rounded=0;strokeColor=default;fontFamily=Helvetica;fontSize=11;fontColor=default;labelBackgroundColor=default;fillColor=light-dark(#888686, #b4b4b4);" vertex="1" connectable="0" parent="fnGw0pFWFKrqnsudUW0G-21">
          <mxGeometry x="-0.144" y="1" relative="1" as="geometry">
            <mxPoint as="offset" />
          </mxGeometry>
        </mxCell>
        <mxCell id="fnGw0pFWFKrqnsudUW0G-23" value="" style="endArrow=classic;html=1;rounded=0;endWidth=9.333333333333334;shape=flexArrow;endSize=3;fillColor=light-dark(#888686, #b4b4b4);width=5;startSize=3;exitX=0.795;exitY=0.951;exitDx=0;exitDy=0;exitPerimeter=0;strokeColor=default;align=center;verticalAlign=middle;fontFamily=Helvetica;fontSize=11;fontColor=default;labelBackgroundColor=default;" edge="1" parent="1" source="rF3rQbnVZQ3ykrwLCHyt-18">
          <mxGeometry width="50" height="50" relative="1" as="geometry">
            <mxPoint x="110" y="4367.5" as="sourcePoint" />
            <mxPoint x="137" y="4380" as="targetPoint" />
          </mxGeometry>
        </mxCell>
        <mxCell id="fnGw0pFWFKrqnsudUW0G-24" value="&lt;span style=&quot;font-family: &amp;quot;Times New Roman&amp;quot;;&quot;&gt;register sender&lt;/span&gt;" style="edgeLabel;html=1;align=center;verticalAlign=middle;resizable=0;points=[];rounded=0;strokeColor=default;fontFamily=Helvetica;fontSize=11;fontColor=default;labelBackgroundColor=default;fillColor=light-dark(#888686, #b4b4b4);labelBorderColor=none;" vertex="1" connectable="0" parent="fnGw0pFWFKrqnsudUW0G-23">
          <mxGeometry x="-0.144" y="1" relative="1" as="geometry">
            <mxPoint as="offset" />
          </mxGeometry>
        </mxCell>
        <mxCell id="fnGw0pFWFKrqnsudUW0G-27" value="" style="endArrow=classic;html=1;rounded=0;endWidth=9.333333333333334;shape=flexArrow;endSize=3;fillColor=light-dark(#888686, #b4b4b4);width=5;startSize=3;strokeColor=default;align=center;verticalAlign=middle;fontFamily=Helvetica;fontSize=11;fontColor=default;labelBackgroundColor=default;" edge="1" parent="1">
          <mxGeometry width="50" height="50" relative="1" as="geometry">
            <mxPoint x="520" y="4255" as="sourcePoint" />
            <mxPoint x="470" y="4255" as="targetPoint" />
          </mxGeometry>
        </mxCell>
        <mxCell id="fnGw0pFWFKrqnsudUW0G-28" value="" style="edgeLabel;html=1;align=center;verticalAlign=middle;resizable=0;points=[];rounded=0;strokeColor=default;fontFamily=Helvetica;fontSize=11;fontColor=default;labelBackgroundColor=default;fillColor=light-dark(#888686, #b4b4b4);labelBorderColor=none;" vertex="1" connectable="0" parent="fnGw0pFWFKrqnsudUW0G-27">
          <mxGeometry x="-0.144" y="1" relative="1" as="geometry">
            <mxPoint as="offset" />
          </mxGeometry>
        </mxCell>
      </root>
    </mxGraphModel>
  </diagram>
</mxfile>
